<svg width="14" height="17" viewBox="0 0 14 17" fill="none" xmlns="http://www.w3.org/2000/svg">
<path d="M11.6933 9.0879C11.7091 8.44878 11.8886 7.8244 12.2147 7.27451C12.5408 6.72463 13.0026 6.26766 13.5559 5.94733C13.1878 5.4544 12.7126 5.05139 12.1662 4.76863C11.6198 4.48587 11.0164 4.33073 10.4013 4.31489C9.07186 4.18161 7.78775 5.07483 7.11181 5.07483C6.42243 5.07483 5.38192 4.32777 4.26021 4.35017C3.54492 4.36702 2.8456 4.56514 2.22776 4.92597C1.60992 5.28681 1.09376 5.79855 0.727636 6.41327C-0.802886 8.94678 0.335625 12.6686 1.80119 14.7177C2.53369 15.7207 3.38995 16.8402 4.50998 16.8004C5.60593 16.7573 6.0153 16.1318 7.33806 16.1318C8.64849 16.1318 9.03322 16.8004 10.1757 16.7758C11.3517 16.7579 12.0926 15.7678 12.7993 14.7569C13.324 14.0468 13.7296 13.256 14 12.4155C13.3297 12.1509 12.7529 11.6936 12.3423 11.1013C11.9318 10.5091 11.7059 9.80843 11.6933 9.0879Z" fill="black"/>
<path d="M9.54725 2.85608C10.2166 2.06149 10.5474 1.03595 10.4685 0C9.44632 0.105924 8.5009 0.590824 7.81849 1.35916C7.48663 1.73258 7.2322 2.16816 7.06993 2.64064C6.90766 3.11312 6.84079 3.61311 6.87318 4.11163C7.38467 4.11719 7.89082 4.00715 8.35384 3.78975C8.81687 3.57235 9.22482 3.25318 9.54725 2.85608Z" fill="black"/>
</svg>
