<svg width="63" height="63" viewBox="0 0 63 63" fill="none" xmlns="http://www.w3.org/2000/svg">
<g clip-path="url(#clip0_184_386)">
<path d="M17.4223 22.5316C14.1108 24.9195 10.7087 27.2894 7.67992 30.0348C6.59171 31.0212 6.88165 31.2059 8.12866 31.7454C10.7218 32.8672 13.409 33.6799 15.8817 35.0731C16.7604 35.5682 17.5373 36.2015 18.4065 36.7011" stroke="#FF5833" stroke-width="8" stroke-linecap="round"/>
<path d="M36.4546 9.974C34.9529 13.8149 33.6447 17.5481 32.8368 21.5964C31.8397 26.5935 29.7554 31.1159 28.0954 35.9003C26.8364 39.529 25.7471 43.1999 24.6996 46.8945C24.3412 48.1584 23.6573 49.4774 23.8995 50.8122" stroke="#FF5833" stroke-width="8" stroke-linecap="round"/>
<path d="M41.9148 26.0097C45.0411 27.9456 48.1953 29.8337 51.5437 31.3678C51.8037 31.4869 54.3399 32.4085 53.9424 32.9036C53.379 33.6057 52.2855 33.9277 51.5058 34.2709C49.7841 35.0288 48.1223 35.8823 46.4398 36.718C45.1945 37.3364 43.6565 37.6135 42.5095 38.3653" stroke="#FF5833" stroke-width="8" stroke-linecap="round"/>
</g>
<defs>
<clipPath id="clip0_184_386">
<rect width="45.4652" height="45.4652" fill="white" transform="translate(22.6572) rotate(29.8904)"/>
</clipPath>
</defs>
</svg>
