<svg width="89" height="49" viewBox="0 0 89 49" fill="none" xmlns="http://www.w3.org/2000/svg">
<path d="M58.127 28.1105C59.1252 26.2961 60.2255 24.5793 61.4241 22.886C63.2884 20.2521 65.2248 17.6332 67.2778 15.1425C69.3967 12.5716 71.708 10.2487 74.1443 7.98047C75.8649 6.37841 77.7559 4.87175 79.8818 3.83028C81.457 3.05851 84.0354 2.20489 84.8682 4.39961C85.2356 5.36797 84.8544 6.49618 84.4057 7.37131C83.605 8.93116 82.2381 10.2051 81.0058 11.4193C77.6263 14.7478 74.1235 17.9488 70.754 21.2887C68.2643 23.7566 65.5464 25.9883 63.0417 28.4434C62.3277 29.1434 61.5978 29.8179 60.7917 30.411C60.3992 30.6997 60.0751 30.9359 59.5752 30.9517C59.0227 30.9688 58.6666 30.7797 58.3733 30.2981C58.1641 29.9541 58.1408 29.4628 57.875 29.1679" stroke="#FF5833" stroke-width="6" stroke-linecap="round"/>
<path d="M58.7956 31.9345C58.9831 32.9361 58.9552 33.678 58.6402 34.6604C58.2657 35.8294 57.4954 36.7917 56.4705 37.4396C55.5515 38.0207 54.5695 38.4086 53.4976 38.6031C52.5236 38.7798 51.5921 38.971 50.6076 38.7865C49.3511 38.5507 47.9842 37.8078 47.1398 36.8372C46.7698 36.4122 46.5461 35.8477 46.3066 35.3428C46.0783 34.862 45.915 34.3921 45.9437 33.8547C45.9991 32.8169 46.6736 31.9545 47.7151 31.7933C48.1621 31.7241 48.6412 31.9316 49.0445 32.1028C49.4824 32.2886 49.8652 32.3116 50.3302 32.2237C51.8033 31.9445 52.3557 30.3639 53.6455 29.7606C54.5566 29.3342 55.5357 29.0105 56.5313 28.8593C57.1883 28.7594 57.8162 28.8852 58.454 28.8132" stroke="#FF5833" stroke-width="6" stroke-linecap="round"/>
<path d="M27.0291 44.6898C24.7474 45.5126 22.4275 45.3593 20.0517 45.0481C16.9911 44.6469 13.79 43.9091 11.2025 42.1777C7.79751 39.8997 5.32236 36.2573 3.98956 32.4237C2.58851 28.3941 2.86455 23.6462 3.65252 19.5249C5.35053 10.6435 14.5317 6.57139 22.7403 5.56474C26.6785 5.08181 30.8883 5.6916 34.3067 7.75105C37.1839 9.48438 39.6101 12.2177 40.288 15.5852C40.8808 18.529 40.2788 21.1519 38.6853 23.6839C37.4387 25.6648 35.2455 27.0615 33.262 28.2254C31.0585 29.5183 25.9447 32.0133 28.3438 35.2974C29.2416 36.5264 30.6942 37.2471 31.8677 38.1853C32.9792 39.074 33.4322 40.0288 33.4045 41.4611C33.3418 44.7081 29.556 45.3243 27.0597 45.5001" stroke="#FF5833" stroke-width="6" stroke-linecap="round"/>
<path d="M29.4626 11.4999C27.255 11.1073 23.9407 11.5968 23.625 14.2645C23.4986 15.3321 23.5395 16.6451 24.4318 17.41C25.4329 18.268 26.8215 18.4739 28.1063 18.426C30.209 18.3474 32.2288 17.7735 32.3084 15.3902C32.3794 13.2595 30.9072 11.9688 28.9144 11.5368" stroke="#FF5833" stroke-width="6" stroke-linecap="round"/>
<path d="M17.655 12.8979C15.8184 13.8999 13.8837 15.0377 14.3865 17.408C14.7865 19.2939 17.2437 20.4076 19.0575 19.8752C20.9662 19.3149 21.8939 17.8094 21.0333 15.9841C20.5247 14.9055 19.4672 13.4293 18.0733 13.7546" stroke="#FF5833" stroke-width="6" stroke-linecap="round"/>
<path d="M8.96273 20.3603C7.95892 21.7749 6.6094 23.3639 7.57985 25.1201C8.47492 26.7401 10.0232 27.1351 11.5276 26.0594C12.7436 25.19 12.8572 23.5215 12.5019 22.1827C12.3047 21.4399 11.6383 20.1899 10.7986 20.7895" stroke="#FF5833" stroke-width="6" stroke-linecap="round"/>
<path d="M9.95352 32.5118C9.20426 33.6908 8.81289 35.2369 9.54229 36.5367C10.237 37.7744 11.888 37.774 13.0761 37.3403C14.7674 36.7237 14.8402 35.6839 14.0272 34.2266C13.5738 33.4138 12.779 32.8947 11.8283 33.0126" stroke="#FF5833" stroke-width="6" stroke-linecap="round"/>
<path d="M27.3067 39.3286C26.6702 39.2602 26.2583 39.0628 26.0895 39.6852C25.97 40.1259 25.9284 40.5471 25.9848 41.0017C26.0819 41.7828 26.7102 42.1927 27.5255 42.2111C28.2103 42.2265 29.3668 41.9728 29.2492 41.1337C29.1715 40.5805 28.4132 40.1964 28.1773 39.6943" stroke="#FF5833" stroke-width="6" stroke-linecap="round"/>
<path d="M27.6152 13.6436C28.0175 13.6668 29.6301 13.507 29.9963 13.8696C30.2512 14.122 29.1239 15.1103 29.0292 15.1917C28.4051 15.728 26.8122 16.9116 25.9838 16.2411C24.4761 15.0206 28.029 11.7627 29.1922 14.069C30.1153 15.8994 26.147 16.7011 27.2336 14.2831C27.6743 13.3024 29.0908 12.6241 29.9884 13.3753C31.0495 14.2635 30.3212 15.8343 29.3443 16.4386C28.036 17.2479 24.6439 15.3301 26.3777 13.6852C27.2761 12.8329 29.0404 12.5515 29.8864 13.5989C31.0192 15.0015 30.1536 16.6146 28.7327 17.2903C27.6423 17.8088 26.497 17.7628 26.2067 16.4056C25.8525 14.7502 26.436 13.127 28.1456 12.7067C29.3888 12.4011 30.9274 13.2381 31.4226 14.4666C31.9705 15.8259 29.5306 16.6949 28.6296 16.6518C27.5578 16.6005 26.1205 16.0565 26.1497 14.7415C26.1781 13.4651 27.1024 11.9596 28.4705 12.2437C29.7179 12.5028 30.6935 13.6362 29.994 14.9559C29.2495 16.3603 27.4818 17.2806 25.9644 16.846C24.645 16.4683 25.2695 14.9729 25.9608 14.2645C26.9039 13.298 28.9838 13.164 29.8945 14.2502C30.61 15.1037 29.3107 15.9848 28.5775 16.0205C27.8925 16.0538 26.0918 15.6299 26.7357 14.5304C27.3843 13.4229 28.9294 13.1246 30.0075 13.5784C31.3562 14.1459 29.0228 14.6736 28.6398 14.695C28.2166 14.7186 26.3411 14.7977 26.8037 13.8202C27.0412 13.3182 27.5461 12.9392 27.9382 12.5744C28.4053 12.1398 28.575 12.0489 28.3653 12.8486C28.2077 13.4498 28.0447 14.8336 27.2393 14.8985C26.471 14.9604 26.3607 13.7217 26.4573 13.1597C26.7357 11.5396 29.031 12.1853 28.6885 13.7817" stroke="#FF5833" stroke-width="6" stroke-linecap="round"/>
<path d="M26.3919 14.4316C26.88 13.8348 27.3886 12.9204 28.2265 13.102C28.7973 13.2258 29.3368 13.5786 28.8954 14.2292C28.3717 15.0011 26.5189 15.8413 25.6868 15.2505C24.7275 14.5695 25.598 13.5937 26.3383 13.2913C27.3912 12.8611 28.3272 13.6931 27.3454 14.676C27.1222 14.8994 26.2676 15.4346 26.1912 14.7755C26.0865 13.8731 27.3221 13.5396 27.9329 13.5192C28.2856 13.5075 27.2283 13.4816 26.876 13.4627C26.8128 13.4594 26.4118 13.5036 26.4368 13.3518C26.5418 12.7154 27.0963 12.2967 27.2985 11.7446" stroke="#FF5833" stroke-width="6" stroke-linecap="round"/>
<path d="M17.0602 16.8892C18.0177 16.1681 18.9589 15.0716 20.0382 16.1746C20.7238 16.8751 20.2717 17.6498 19.7134 18.275C19.3713 18.658 18.8425 18.8775 18.5297 18.3365C18.0806 17.5599 18.2582 16.4944 18.8445 15.831C20.0947 14.4162 22.3278 17.1172 20.8974 18.2091C20.0982 18.8192 18.9374 18.7499 18.1645 18.1449C17.5597 17.6714 16.4869 16.4953 17.0031 15.6723C18.0177 14.0545 22.1619 15.1523 21.153 17.151C20.3223 18.7963 16.6528 19.5604 16.9131 16.933C16.998 16.0757 17.4047 15.087 18.4215 14.9432C19.313 14.8171 20.5727 15.7535 20.4059 16.6591C20.1952 17.8023 18.9825 18.6121 17.8302 18.7296C16.8897 18.8255 15.7559 18.03 15.9255 17.0481C16.3073 14.8377 20.1723 13.7641 20.9905 16.2986C21.3008 17.2599 19.889 17.8691 19.1483 18.0166C18.1059 18.2243 16.8689 18.2383 16.0469 17.485C14.4908 16.0592 17.0868 12.8347 19.0356 13.4393C21.4318 14.1827 19.1369 16.4198 17.6967 16.6564C17.5233 16.6849 17.134 16.7431 17.2818 16.4663C17.8426 15.4155 19.2571 14.6333 20.4762 15.1735C21.352 15.5616 21.2888 16.4138 20.5279 16.8292C19.7392 17.2597 18.7488 17.3338 17.8999 17.0029C17.2556 16.7519 17.5821 16.251 18.0149 15.9502C18.8518 15.3686 20.0806 15.4309 20.8179 16.143C21.7505 17.0439 19.6031 17.5562 19.358 16.5471" stroke="#FF5833" stroke-width="6" stroke-linecap="round"/>
<path d="M9.78808 23.3052C10.4369 22.7904 11.6763 21.4007 11.9917 22.8976C12.2056 23.9125 11.136 25.4628 10.2038 25.7744C9.14188 26.1295 8.55801 24.7363 8.50572 23.902C8.45352 23.0696 8.94312 21.1801 9.99397 21.0661C10.7746 20.9815 11.9578 21.7067 12.0801 22.5346C12.1966 23.3227 11.4163 24.0785 10.6394 23.9154C8.21739 23.4066 10.2437 19.1208 12.2795 21.7092C13.0354 22.6703 12.7426 24.3906 11.7328 25.0813C10.5921 25.8614 10.0154 24.6716 9.76175 23.6365C9.61956 23.0561 9.45179 21.6696 10.2677 21.431C11.3027 21.1283 12.0975 22.6053 11.8105 23.4658C11.59 24.1265 10.4142 24.77 9.78325 24.3643C8.89829 23.7953 9.25561 22.5798 9.84411 21.9336C10.383 21.3419 11.3831 21.6473 11.7673 22.2553C12.0524 22.7065 11.2112 22.1891 11.0936 22.1142" stroke="#FF5833" stroke-width="6" stroke-linecap="round"/>
<path d="M11.7032 35.4066C11.8375 35.2462 12.9405 33.5631 13.2566 34.4034C13.542 35.1621 12.3456 35.6637 11.7685 35.5137C11.1499 35.3533 9.89079 34.4172 10.712 33.776C11.6989 33.0057 12.5752 33.7031 13.3581 34.3314" stroke="#FF5833" stroke-width="6" stroke-linecap="round"/>
<path d="M13.0269 36.8482C12.234 36.4366 11.8606 36.0604 11.5941 35.2047C11.5248 34.9822 11.2618 34.0865 11.5221 33.8087C11.7954 33.517 12.1505 34.3223 12.1509 34.4681C12.1516 34.6689 11.8194 35.196 11.6996 34.7723C11.4698 33.9599 11.9503 33.1246 12.8751 33.0888C13.4524 33.0663 13.811 33.6587 13.7839 34.1661C13.7485 34.8298 13.0106 35.2789 12.3986 35.4051C12.0737 35.4722 11.5063 35.4055 11.3165 35.0847C11.0328 34.6052 11.6798 34.0353 11.9574 33.7182" stroke="#FF5833" stroke-width="6" stroke-linecap="round"/>
</svg>
