<svg xmlns="http://www.w3.org/2000/svg" viewBox="0 0 450.62 301.88"><defs><style>.cls-1{fill:#ff5833;}</style></defs><g id="Layer_2" data-name="Layer 2"><g id="Layer_1-2" data-name="Layer 1"><path class="cls-1" d="M424.37,199.61A300.83,300.83,0,0,0,251.74,301.88l-93.3-42.25q10.59-41.76,21.13-83.48a687.06,687.06,0,0,1-143.71,93Q29,272.53,22.18,275.6L0,168.32c17.13-9.66,35.32-21.34,60.87-37.83C91,111.08,115.14,94.1,131.71,82.16,160.18,61.63,196.26,34.29,236.89,0l83.43,54.89L300,133.73a503.41,503.41,0,0,1,53.81-20.79c17.06-5.5,33.18-9.69,48.06-12.9Q413.11,149.82,424.37,199.61Z"/><path class="cls-1" d="M409.5,98l18.58-4.39q11.26,49.8,22.54,99.58l-19,4.41Z"/></g></g></svg>