<svg width="378" height="951" viewBox="0 0 378 951" fill="none" xmlns="http://www.w3.org/2000/svg">
<path d="M149.886 26.7V30.564H145.434V26.7H143.166V36.5H145.434V32.482H149.886V36.5H152.154V26.7H149.886ZM157.553 36.612C159.947 36.612 161.683 35.002 161.683 32.734C161.683 30.466 159.947 28.856 157.553 28.856C155.159 28.856 153.409 30.466 153.409 32.734C153.409 35.002 155.159 36.612 157.553 36.612ZM157.553 34.82C156.461 34.82 155.621 34.036 155.621 32.734C155.621 31.432 156.461 30.648 157.553 30.648C158.645 30.648 159.471 31.432 159.471 32.734C159.471 34.036 158.645 34.82 157.553 34.82ZM172.438 28.856C171.304 28.856 170.324 29.318 169.722 30.088C169.19 29.262 168.294 28.856 167.244 28.856C166.278 28.856 165.438 29.192 164.878 29.836V28.968H162.792V36.5H164.976V32.72C164.976 31.376 165.662 30.746 166.628 30.746C167.538 30.746 168.056 31.306 168.056 32.524V36.5H170.24V32.72C170.24 31.376 170.926 30.746 171.906 30.746C172.788 30.746 173.334 31.306 173.334 32.524V36.5H175.518V32.188C175.518 29.892 174.23 28.856 172.438 28.856ZM184.586 32.762C184.586 30.34 182.878 28.856 180.666 28.856C178.37 28.856 176.648 30.48 176.648 32.734C176.648 34.974 178.342 36.612 180.946 36.612C182.304 36.612 183.354 36.192 184.054 35.394L182.892 34.134C182.374 34.624 181.8 34.862 181.002 34.862C179.854 34.862 179.056 34.288 178.846 33.35H184.544C184.558 33.168 184.586 32.93 184.586 32.762ZM180.68 30.508C181.66 30.508 182.374 31.124 182.528 32.076H178.818C178.972 31.11 179.686 30.508 180.68 30.508ZM192.679 36.668C195.479 36.668 196.837 35.268 196.837 33.63C196.837 30.032 191.139 31.278 191.139 29.472C191.139 28.856 191.657 28.352 193.001 28.352C193.869 28.352 194.807 28.604 195.717 29.122L196.417 27.4C195.507 26.826 194.247 26.532 193.015 26.532C190.229 26.532 188.885 27.918 188.885 29.584C188.885 33.224 194.583 31.964 194.583 33.798C194.583 34.4 194.037 34.848 192.693 34.848C191.517 34.848 190.285 34.428 189.459 33.826L188.689 35.534C189.557 36.206 191.125 36.668 192.679 36.668ZM201.523 36.612C203.105 36.612 204.351 35.912 204.897 34.708L203.203 33.784C202.797 34.512 202.195 34.82 201.509 34.82C200.403 34.82 199.535 34.05 199.535 32.734C199.535 31.418 200.403 30.648 201.509 30.648C202.195 30.648 202.797 30.97 203.203 31.684L204.897 30.774C204.351 29.542 203.105 28.856 201.523 28.856C199.073 28.856 197.323 30.466 197.323 32.734C197.323 35.002 199.073 36.612 201.523 36.612ZM207.89 29.962V28.968H205.804V36.5H207.988V32.944C207.988 31.502 208.786 30.844 209.99 30.844C210.158 30.844 210.298 30.858 210.48 30.872V28.856C209.318 28.856 208.422 29.234 207.89 29.962ZM218.738 32.762C218.738 30.34 217.03 28.856 214.818 28.856C212.522 28.856 210.8 30.48 210.8 32.734C210.8 34.974 212.494 36.612 215.098 36.612C216.456 36.612 217.506 36.192 218.206 35.394L217.044 34.134C216.526 34.624 215.952 34.862 215.154 34.862C214.006 34.862 213.208 34.288 212.998 33.35H218.696C218.71 33.168 218.738 32.93 218.738 32.762ZM214.832 30.508C215.812 30.508 216.526 31.124 216.68 32.076H212.97C213.124 31.11 213.838 30.508 214.832 30.508ZM227.22 32.762C227.22 30.34 225.512 28.856 223.3 28.856C221.004 28.856 219.282 30.48 219.282 32.734C219.282 34.974 220.976 36.612 223.58 36.612C224.938 36.612 225.988 36.192 226.688 35.394L225.526 34.134C225.008 34.624 224.434 34.862 223.636 34.862C222.488 34.862 221.69 34.288 221.48 33.35H227.178C227.192 33.168 227.22 32.93 227.22 32.762ZM223.314 30.508C224.294 30.508 225.008 31.124 225.162 32.076H221.452C221.606 31.11 222.32 30.508 223.314 30.508ZM232.902 28.856C231.88 28.856 230.998 29.206 230.41 29.85V28.968H228.324V36.5H230.508V32.776C230.508 31.39 231.264 30.746 232.314 30.746C233.28 30.746 233.84 31.306 233.84 32.524V36.5H236.024V32.188C236.024 29.892 234.68 28.856 232.902 28.856Z" fill="#E5E5E5"/>
<rect x="129.5" y="1" width="120" height="60" rx="8" stroke="white" stroke-width="1.5" stroke-linecap="round" stroke-linejoin="round"/>
<path d="M47.6828 396.5H49.9508V388.548H53.0868V386.7H44.5468V388.548H47.6828V396.5ZM58.7279 388.968L56.5999 394.078L54.4859 388.968H52.2319L55.4939 396.556L55.4659 396.626C55.1719 397.298 54.8359 397.564 54.2339 397.564C53.7999 397.564 53.3379 397.382 53.0019 397.088L52.2039 398.642C52.6939 399.076 53.5339 399.328 54.3039 399.328C55.6619 399.328 56.6979 398.782 57.4259 396.962L60.8279 388.968H58.7279ZM65.8211 388.856C64.8131 388.856 64.0011 389.178 63.4551 389.836V388.968H61.3691V399.216H63.5531V395.702C64.1131 396.318 64.8831 396.612 65.8211 396.612C67.9351 396.612 69.5731 395.1 69.5731 392.734C69.5731 390.368 67.9351 388.856 65.8211 388.856ZM65.4431 394.82C64.3511 394.82 63.5251 394.036 63.5251 392.734C63.5251 391.432 64.3511 390.648 65.4431 390.648C66.5351 390.648 67.3611 391.432 67.3611 392.734C67.3611 394.036 66.5351 394.82 65.4431 394.82ZM78.0631 392.762C78.0631 390.34 76.3551 388.856 74.1431 388.856C71.8471 388.856 70.1251 390.48 70.1251 392.734C70.1251 394.974 71.8191 396.612 74.4231 396.612C75.7811 396.612 76.8311 396.192 77.5311 395.394L76.3691 394.134C75.8511 394.624 75.2771 394.862 74.4791 394.862C73.3311 394.862 72.5331 394.288 72.3231 393.35H78.0211C78.0351 393.168 78.0631 392.93 78.0631 392.762ZM74.1571 390.508C75.1371 390.508 75.8511 391.124 76.0051 392.076H72.2951C72.4491 391.11 73.1631 390.508 74.1571 390.508Z" fill="#E5E5E5"/>
<rect x="1.5" y="361" width="120" height="60" rx="8" stroke="white" stroke-width="1.5" stroke-linecap="round" stroke-linejoin="round"/>
<path d="M17.1563 547.5H19.4243V539.548H22.5603V537.7H14.0203V539.548H17.1563V547.5ZM28.2014 539.968L26.0734 545.078L23.9594 539.968H21.7054L24.9674 547.556L24.9394 547.626C24.6454 548.298 24.3094 548.564 23.7074 548.564C23.2734 548.564 22.8114 548.382 22.4754 548.088L21.6774 549.642C22.1674 550.076 23.0074 550.328 23.7774 550.328C25.1354 550.328 26.1714 549.782 26.8994 547.962L30.3014 539.968H28.2014ZM35.2946 539.856C34.2866 539.856 33.4746 540.178 32.9286 540.836V539.968H30.8426V550.216H33.0266V546.702C33.5866 547.318 34.3566 547.612 35.2946 547.612C37.4086 547.612 39.0466 546.1 39.0466 543.734C39.0466 541.368 37.4086 539.856 35.2946 539.856ZM34.9166 545.82C33.8246 545.82 32.9986 545.036 32.9986 543.734C32.9986 542.432 33.8246 541.648 34.9166 541.648C36.0086 541.648 36.8346 542.432 36.8346 543.734C36.8346 545.036 36.0086 545.82 34.9166 545.82ZM47.5366 543.762C47.5366 541.34 45.8286 539.856 43.6166 539.856C41.3206 539.856 39.5986 541.48 39.5986 543.734C39.5986 545.974 41.2926 547.612 43.8966 547.612C45.2546 547.612 46.3046 547.192 47.0046 546.394L45.8426 545.134C45.3246 545.624 44.7506 545.862 43.9526 545.862C42.8046 545.862 42.0066 545.288 41.7966 544.35H47.4946C47.5086 544.168 47.5366 543.93 47.5366 543.762ZM43.6306 541.508C44.6106 541.508 45.3246 542.124 45.4786 543.076H41.7686C41.9226 542.11 42.6366 541.508 43.6306 541.508ZM55.8395 547.612C58.2335 547.612 59.9695 546.002 59.9695 543.734C59.9695 541.466 58.2335 539.856 55.8395 539.856C53.4455 539.856 51.6955 541.466 51.6955 543.734C51.6955 546.002 53.4455 547.612 55.8395 547.612ZM55.8395 545.82C54.7475 545.82 53.9075 545.036 53.9075 543.734C53.9075 542.432 54.7475 541.648 55.8395 541.648C56.9315 541.648 57.7575 542.432 57.7575 543.734C57.7575 545.036 56.9315 545.82 55.8395 545.82ZM66.4833 539.968V543.692C66.4833 545.078 65.7553 545.722 64.7473 545.722C63.7813 545.722 63.2213 545.162 63.2213 543.902V539.968H61.0373V544.224C61.0373 546.548 62.3673 547.612 64.2573 547.612C65.1813 547.612 66.0213 547.262 66.5953 546.604V547.5H68.6673V539.968H66.4833ZM74.6106 545.596C74.3726 545.778 74.0506 545.876 73.7286 545.876C73.1406 545.876 72.7906 545.526 72.7906 544.882V541.816H74.6666V540.136H72.7906V538.302H70.6066V540.136H69.4446V541.816H70.6066V544.91C70.6066 546.702 71.6426 547.612 73.4206 547.612C74.0926 547.612 74.7506 547.458 75.1986 547.136L74.6106 545.596ZM83.9594 545.596C83.7214 545.778 83.3994 545.876 83.0774 545.876C82.4894 545.876 82.1394 545.526 82.1394 544.882V541.816H84.0154V540.136H82.1394V538.302H79.9554V540.136H78.7934V541.816H79.9554V544.91C79.9554 546.702 80.9914 547.612 82.7694 547.612C83.4414 547.612 84.0994 547.458 84.5474 547.136L83.9594 545.596ZM88.4614 539.856C87.2574 539.856 86.0394 540.178 85.2134 540.766L85.9974 542.292C86.5434 541.858 87.3694 541.592 88.1674 541.592C89.3434 541.592 89.9034 542.138 89.9034 543.076H88.1674C85.8714 543.076 84.9334 544 84.9334 545.33C84.9334 546.632 85.9834 547.612 87.7474 547.612C88.8534 547.612 89.6374 547.248 90.0434 546.562V547.5H92.0874V543.202C92.0874 540.92 90.7574 539.856 88.4614 539.856ZM88.2934 546.142C87.5234 546.142 87.0614 545.778 87.0614 545.232C87.0614 544.728 87.3834 544.35 88.4054 544.35H89.9034V545.12C89.6514 545.806 89.0214 546.142 88.2934 546.142ZM96.2481 547.612C98.5021 547.612 99.8041 546.618 99.8041 545.218C99.8041 542.25 95.2541 543.496 95.2541 542.208C95.2541 541.816 95.6741 541.508 96.6541 541.508C97.3401 541.508 98.0821 541.648 98.8241 542.068L99.5521 540.514C98.8381 540.094 97.6901 539.856 96.6541 539.856C94.4561 539.856 93.1681 540.864 93.1681 542.292C93.1681 545.302 97.7181 544.042 97.7181 545.274C97.7181 545.694 97.3401 545.96 96.3321 545.96C95.4081 545.96 94.3861 545.666 93.7141 545.232L92.9861 546.8C93.6861 547.262 94.9741 547.612 96.2481 547.612ZM106.416 547.5H109.062L105.646 543.16L108.782 539.968H106.178L102.986 542.992V537.112H100.802V547.5H102.986V545.582L104.036 544.546L106.416 547.5Z" fill="#E5E5E5"/>
<rect x="1.5" y="512" width="120" height="60" rx="8" stroke="white" stroke-width="1.5" stroke-linecap="round" stroke-linejoin="round"/>
<path d="M146.734 689.668C149.534 689.668 150.892 688.268 150.892 686.63C150.892 683.032 145.194 684.278 145.194 682.472C145.194 681.856 145.712 681.352 147.056 681.352C147.924 681.352 148.862 681.604 149.772 682.122L150.472 680.4C149.562 679.826 148.302 679.532 147.07 679.532C144.284 679.532 142.94 680.918 142.94 682.584C142.94 686.224 148.638 684.964 148.638 686.798C148.638 687.4 148.092 687.848 146.748 687.848C145.572 687.848 144.34 687.428 143.514 686.826L142.744 688.534C143.612 689.206 145.18 689.668 146.734 689.668ZM159.315 685.762C159.315 683.34 157.607 681.856 155.395 681.856C153.099 681.856 151.377 683.48 151.377 685.734C151.377 687.974 153.071 689.612 155.675 689.612C157.033 689.612 158.083 689.192 158.783 688.394L157.621 687.134C157.103 687.624 156.529 687.862 155.731 687.862C154.583 687.862 153.785 687.288 153.575 686.35H159.273C159.287 686.168 159.315 685.93 159.315 685.762ZM155.409 683.508C156.389 683.508 157.103 684.124 157.257 685.076H153.547C153.701 684.11 154.415 683.508 155.409 683.508ZM164.69 687.596C164.452 687.778 164.13 687.876 163.808 687.876C163.22 687.876 162.87 687.526 162.87 686.882V683.816H164.746V682.136H162.87V680.302H160.686V682.136H159.524V683.816H160.686V686.91C160.686 688.702 161.722 689.612 163.5 689.612C164.172 689.612 164.83 689.458 165.278 689.136L164.69 687.596ZM178.602 689.5L176.404 686.35C177.678 685.804 178.42 684.726 178.42 683.256C178.42 681.058 176.782 679.7 174.164 679.7H169.922V689.5H172.19V686.77H174.164H174.276L176.166 689.5H178.602ZM176.124 683.256C176.124 684.32 175.424 684.964 174.038 684.964H172.19V681.548H174.038C175.424 681.548 176.124 682.178 176.124 683.256ZM187.091 685.762C187.091 683.34 185.383 681.856 183.171 681.856C180.875 681.856 179.153 683.48 179.153 685.734C179.153 687.974 180.847 689.612 183.451 689.612C184.809 689.612 185.859 689.192 186.559 688.394L185.397 687.134C184.879 687.624 184.305 687.862 183.507 687.862C182.359 687.862 181.561 687.288 181.351 686.35H187.049C187.063 686.168 187.091 685.93 187.091 685.762ZM183.185 683.508C184.165 683.508 184.879 684.124 185.033 685.076H181.323C181.477 684.11 182.191 683.508 183.185 683.508ZM197.841 681.856C196.707 681.856 195.727 682.318 195.125 683.088C194.593 682.262 193.697 681.856 192.647 681.856C191.681 681.856 190.841 682.192 190.281 682.836V681.968H188.195V689.5H190.379V685.72C190.379 684.376 191.065 683.746 192.031 683.746C192.941 683.746 193.459 684.306 193.459 685.524V689.5H195.643V685.72C195.643 684.376 196.329 683.746 197.309 683.746C198.191 683.746 198.737 684.306 198.737 685.524V689.5H200.921V685.188C200.921 682.892 199.633 681.856 197.841 681.856ZM203.621 680.918C204.433 680.918 204.979 680.386 204.979 679.658C204.979 678.986 204.433 678.482 203.621 678.482C202.809 678.482 202.263 679.014 202.263 679.7C202.263 680.386 202.809 680.918 203.621 680.918ZM202.529 689.5H204.713V681.968H202.529V689.5ZM210.968 681.856C209.946 681.856 209.064 682.206 208.476 682.85V681.968H206.39V689.5H208.574V685.776C208.574 684.39 209.33 683.746 210.38 683.746C211.346 683.746 211.906 684.306 211.906 685.524V689.5H214.09V685.188C214.09 682.892 212.746 681.856 210.968 681.856ZM221.29 679.112V682.766C220.744 682.15 219.96 681.856 219.036 681.856C216.908 681.856 215.27 683.368 215.27 685.734C215.27 688.1 216.908 689.612 219.036 689.612C220.044 689.612 220.842 689.29 221.388 688.632V689.5H223.474V679.112H221.29ZM219.414 687.82C218.322 687.82 217.482 687.036 217.482 685.734C217.482 684.432 218.322 683.648 219.414 683.648C220.492 683.648 221.332 684.432 221.332 685.734C221.332 687.036 220.492 687.82 219.414 687.82ZM232.523 685.762C232.523 683.34 230.815 681.856 228.603 681.856C226.307 681.856 224.585 683.48 224.585 685.734C224.585 687.974 226.279 689.612 228.883 689.612C230.241 689.612 231.291 689.192 231.991 688.394L230.829 687.134C230.311 687.624 229.737 687.862 228.939 687.862C227.791 687.862 226.993 687.288 226.783 686.35H232.481C232.495 686.168 232.523 685.93 232.523 685.762ZM228.617 683.508C229.597 683.508 230.311 684.124 230.465 685.076H226.755C226.909 684.11 227.623 683.508 228.617 683.508ZM235.713 682.962V681.968H233.627V689.5H235.811V685.944C235.811 684.502 236.609 683.844 237.813 683.844C237.981 683.844 238.121 683.858 238.303 683.872V681.856C237.141 681.856 236.245 682.234 235.713 682.962Z" fill="#E5E5E5"/>
<rect x="130.5" y="654" width="120" height="60" rx="8" stroke="white" stroke-width="1.5" stroke-linecap="round" stroke-linejoin="round"/>
<path d="M153.914 807.668C156.714 807.668 158.072 806.268 158.072 804.63C158.072 801.032 152.374 802.278 152.374 800.472C152.374 799.856 152.892 799.352 154.236 799.352C155.104 799.352 156.042 799.604 156.952 800.122L157.652 798.4C156.742 797.826 155.482 797.532 154.25 797.532C151.464 797.532 150.12 798.918 150.12 800.584C150.12 804.224 155.818 802.964 155.818 804.798C155.818 805.4 155.272 805.848 153.928 805.848C152.752 805.848 151.52 805.428 150.694 804.826L149.924 806.534C150.792 807.206 152.36 807.668 153.914 807.668ZM166.496 803.762C166.496 801.34 164.788 799.856 162.576 799.856C160.28 799.856 158.558 801.48 158.558 803.734C158.558 805.974 160.252 807.612 162.856 807.612C164.214 807.612 165.264 807.192 165.964 806.394L164.802 805.134C164.284 805.624 163.71 805.862 162.912 805.862C161.764 805.862 160.966 805.288 160.756 804.35H166.454C166.468 804.168 166.496 803.93 166.496 803.762ZM162.59 801.508C163.57 801.508 164.284 802.124 164.438 803.076H160.728C160.882 802.11 161.596 801.508 162.59 801.508ZM171.87 805.596C171.632 805.778 171.31 805.876 170.988 805.876C170.4 805.876 170.05 805.526 170.05 804.882V801.816H171.926V800.136H170.05V798.302H167.866V800.136H166.704V801.816H167.866V804.91C167.866 806.702 168.902 807.612 170.68 807.612C171.352 807.612 172.01 807.458 172.458 807.136L171.87 805.596ZM181.345 797.7H177.103V807.5H179.371V804.798H181.345C183.963 804.798 185.601 803.44 185.601 801.256C185.601 799.058 183.963 797.7 181.345 797.7ZM181.219 802.95H179.371V799.548H181.219C182.605 799.548 183.305 800.178 183.305 801.256C183.305 802.32 182.605 802.95 181.219 802.95ZM188.802 800.962V799.968H186.716V807.5H188.9V803.944C188.9 802.502 189.698 801.844 190.902 801.844C191.07 801.844 191.21 801.858 191.392 801.872V799.856C190.23 799.856 189.334 800.234 188.802 800.962ZM193.433 798.918C194.245 798.918 194.791 798.386 194.791 797.658C194.791 796.986 194.245 796.482 193.433 796.482C192.621 796.482 192.075 797.014 192.075 797.7C192.075 798.386 192.621 798.918 193.433 798.918ZM192.341 807.5H194.525V799.968H192.341V807.5ZM199.786 807.612C202.18 807.612 203.916 806.002 203.916 803.734C203.916 801.466 202.18 799.856 199.786 799.856C197.392 799.856 195.642 801.466 195.642 803.734C195.642 806.002 197.392 807.612 199.786 807.612ZM199.786 805.82C198.694 805.82 197.854 805.036 197.854 803.734C197.854 802.432 198.694 801.648 199.786 801.648C200.878 801.648 201.704 802.432 201.704 803.734C201.704 805.036 200.878 805.82 199.786 805.82ZM207.112 800.962V799.968H205.026V807.5H207.21V803.944C207.21 802.502 208.008 801.844 209.212 801.844C209.38 801.844 209.52 801.858 209.702 801.872V799.856C208.54 799.856 207.644 800.234 207.112 800.962ZM211.742 798.918C212.554 798.918 213.1 798.386 213.1 797.658C213.1 796.986 212.554 796.482 211.742 796.482C210.93 796.482 210.384 797.014 210.384 797.7C210.384 798.386 210.93 798.918 211.742 798.918ZM210.65 807.5H212.834V799.968H210.65V807.5ZM218.781 805.596C218.543 805.778 218.221 805.876 217.899 805.876C217.311 805.876 216.961 805.526 216.961 804.882V801.816H218.837V800.136H216.961V798.302H214.777V800.136H213.615V801.816H214.777V804.91C214.777 806.702 215.813 807.612 217.591 807.612C218.263 807.612 218.921 807.458 219.369 807.136L218.781 805.596ZM225.484 799.968L223.356 805.078L221.242 799.968H218.988L222.25 807.556L222.222 807.626C221.928 808.298 221.592 808.564 220.99 808.564C220.556 808.564 220.094 808.382 219.758 808.088L218.96 809.642C219.45 810.076 220.29 810.328 221.06 810.328C222.418 810.328 223.454 809.782 224.182 807.962L227.584 799.968H225.484Z" fill="#E5E5E5"/>
<rect x="128.5" y="772" width="120" height="60" rx="8" stroke="white" stroke-width="1.5" stroke-linecap="round" stroke-linejoin="round"/>
<path d="M301.179 396.5L298.981 393.35C300.255 392.804 300.997 391.726 300.997 390.256C300.997 388.058 299.359 386.7 296.741 386.7H292.499V396.5H294.767V393.77H296.741H296.853L298.743 396.5H301.179ZM298.701 390.256C298.701 391.32 298.001 391.964 296.615 391.964H294.767V388.548H296.615C298.001 388.548 298.701 389.178 298.701 390.256ZM309.668 392.762C309.668 390.34 307.96 388.856 305.748 388.856C303.452 388.856 301.73 390.48 301.73 392.734C301.73 394.974 303.424 396.612 306.028 396.612C307.386 396.612 308.436 396.192 309.136 395.394L307.974 394.134C307.456 394.624 306.882 394.862 306.084 394.862C304.936 394.862 304.138 394.288 303.928 393.35H309.626C309.64 393.168 309.668 392.93 309.668 392.762ZM305.762 390.508C306.742 390.508 307.456 391.124 307.61 392.076H303.9C304.054 391.11 304.768 390.508 305.762 390.508ZM314.412 396.612C315.994 396.612 317.24 395.912 317.786 394.708L316.092 393.784C315.686 394.512 315.084 394.82 314.398 394.82C313.292 394.82 312.424 394.05 312.424 392.734C312.424 391.418 313.292 390.648 314.398 390.648C315.084 390.648 315.686 390.97 316.092 391.684L317.786 390.774C317.24 389.542 315.994 388.856 314.412 388.856C311.962 388.856 310.212 390.466 310.212 392.734C310.212 395.002 311.962 396.612 314.412 396.612ZM322.182 396.612C324.576 396.612 326.312 395.002 326.312 392.734C326.312 390.466 324.576 388.856 322.182 388.856C319.788 388.856 318.038 390.466 318.038 392.734C318.038 395.002 319.788 396.612 322.182 396.612ZM322.182 394.82C321.09 394.82 320.25 394.036 320.25 392.734C320.25 391.432 321.09 390.648 322.182 390.648C323.274 390.648 324.1 391.432 324.1 392.734C324.1 394.036 323.274 394.82 322.182 394.82ZM329.507 389.962V388.968H327.421V396.5H329.605V392.944C329.605 391.502 330.403 390.844 331.607 390.844C331.775 390.844 331.915 390.858 332.097 390.872V388.856C330.935 388.856 330.039 389.234 329.507 389.962ZM338.466 386.112V389.766C337.92 389.15 337.136 388.856 336.212 388.856C334.084 388.856 332.446 390.368 332.446 392.734C332.446 395.1 334.084 396.612 336.212 396.612C337.22 396.612 338.018 396.29 338.564 395.632V396.5H340.65V386.112H338.466ZM336.59 394.82C335.498 394.82 334.658 394.036 334.658 392.734C334.658 391.432 335.498 390.648 336.59 390.648C337.668 390.648 338.508 391.432 338.508 392.734C338.508 394.036 337.668 394.82 336.59 394.82Z" fill="#E5E5E5"/>
<rect x="256.5" y="361" width="120" height="60" rx="8" stroke="white" stroke-width="1.5" stroke-linecap="round" stroke-linejoin="round"/>
<path d="M185.538 141.059C187.74 139.275 190.889 139.275 193.091 141.059L270.372 203.652C273.337 206.053 273.337 210.575 270.372 212.977L193.091 275.57C190.889 277.353 187.74 277.353 185.538 275.57L108.257 212.977C105.292 210.575 105.292 206.053 108.257 203.652L185.538 141.059Z" stroke="white" stroke-width="1.5" stroke-linecap="round" stroke-linejoin="round"/>
<path d="M151.293 188H153.399V180.616H156.311V178.9H148.381V180.616H151.293V188ZM158.986 180.902C157.868 180.902 156.737 181.201 155.97 181.747L156.698 183.164C157.205 182.761 157.972 182.514 158.713 182.514C159.805 182.514 160.325 183.021 160.325 183.892H158.713C156.581 183.892 155.71 184.75 155.71 185.985C155.71 187.194 156.685 188.104 158.323 188.104C159.35 188.104 160.078 187.766 160.455 187.129V188H162.353V184.009C162.353 181.89 161.118 180.902 158.986 180.902ZM158.83 186.739C158.115 186.739 157.686 186.401 157.686 185.894C157.686 185.426 157.985 185.075 158.934 185.075H160.325V185.79C160.091 186.427 159.506 186.739 158.83 186.739ZM167.543 180.902C166.607 180.902 165.853 181.201 165.346 181.812V181.006H163.409V190.522H165.437V187.259C165.957 187.831 166.672 188.104 167.543 188.104C169.506 188.104 171.027 186.7 171.027 184.503C171.027 182.306 169.506 180.902 167.543 180.902ZM167.192 186.44C166.178 186.44 165.411 185.712 165.411 184.503C165.411 183.294 166.178 182.566 167.192 182.566C168.206 182.566 168.973 183.294 168.973 184.503C168.973 185.712 168.206 186.44 167.192 186.44ZM178.471 186.232C178.25 186.401 177.951 186.492 177.652 186.492C177.106 186.492 176.781 186.167 176.781 185.569V182.722H178.523V181.162H176.781V179.459H174.753V181.162H173.674V182.722H174.753V185.595C174.753 187.259 175.715 188.104 177.366 188.104C177.99 188.104 178.601 187.961 179.017 187.662L178.471 186.232ZM182.488 188.104C184.711 188.104 186.323 186.609 186.323 184.503C186.323 182.397 184.711 180.902 182.488 180.902C180.265 180.902 178.64 182.397 178.64 184.503C178.64 186.609 180.265 188.104 182.488 188.104ZM182.488 186.44C181.474 186.44 180.694 185.712 180.694 184.503C180.694 183.294 181.474 182.566 182.488 182.566C183.502 182.566 184.269 183.294 184.269 184.503C184.269 185.712 183.502 186.44 182.488 186.44ZM193.765 186.232C193.544 186.401 193.245 186.492 192.946 186.492C192.4 186.492 192.075 186.167 192.075 185.569V182.722H193.817V181.162H192.075V179.459H190.047V181.162H188.968V182.722H190.047V185.595C190.047 187.259 191.009 188.104 192.66 188.104C193.284 188.104 193.895 187.961 194.311 187.662L193.765 186.232ZM199.534 181.006L197.558 185.751L195.595 181.006H193.502L196.531 188.052L196.505 188.117C196.232 188.741 195.92 188.988 195.361 188.988C194.958 188.988 194.529 188.819 194.217 188.546L193.476 189.989C193.931 190.392 194.711 190.626 195.426 190.626C196.687 190.626 197.649 190.119 198.325 188.429L201.484 181.006H199.534ZM205.666 180.902C204.73 180.902 203.976 181.201 203.469 181.812V181.006H201.532V190.522H203.56V187.259C204.08 187.831 204.795 188.104 205.666 188.104C207.629 188.104 209.15 186.7 209.15 184.503C209.15 182.306 207.629 180.902 205.666 180.902ZM205.315 186.44C204.301 186.44 203.534 185.712 203.534 184.503C203.534 183.294 204.301 182.566 205.315 182.566C206.329 182.566 207.096 183.294 207.096 184.503C207.096 185.712 206.329 186.44 205.315 186.44ZM216.578 184.529C216.578 182.28 214.992 180.902 212.938 180.902C210.806 180.902 209.207 182.41 209.207 184.503C209.207 186.583 210.78 188.104 213.198 188.104C214.459 188.104 215.434 187.714 216.084 186.973L215.005 185.803C214.524 186.258 213.991 186.479 213.25 186.479C212.184 186.479 211.443 185.946 211.248 185.075H216.539C216.552 184.906 216.578 184.685 216.578 184.529ZM212.951 182.436C213.861 182.436 214.524 183.008 214.667 183.892H211.222C211.365 182.995 212.028 182.436 212.951 182.436ZM223.378 188.104C225.601 188.104 227.213 186.609 227.213 184.503C227.213 182.397 225.601 180.902 223.378 180.902C221.155 180.902 219.53 182.397 219.53 184.503C219.53 186.609 221.155 188.104 223.378 188.104ZM223.378 186.44C222.364 186.44 221.584 185.712 221.584 184.503C221.584 183.294 222.364 182.566 223.378 182.566C224.392 182.566 225.159 183.294 225.159 184.503C225.159 185.712 224.392 186.44 223.378 186.44ZM229.726 181.929V181.006H227.789V188H229.817V184.698C229.817 183.359 230.558 182.748 231.676 182.748C231.832 182.748 231.962 182.761 232.131 182.774V180.902C231.052 180.902 230.22 181.253 229.726 181.929ZM161.543 194.9H157.604V204H159.71V201.491H161.543C163.974 201.491 165.495 200.23 165.495 198.202C165.495 196.161 163.974 194.9 161.543 194.9ZM161.426 199.775H159.71V196.616H161.426C162.713 196.616 163.363 197.201 163.363 198.202C163.363 199.19 162.713 199.775 161.426 199.775ZM168.013 197.929V197.006H166.076V204H168.104V200.698C168.104 199.359 168.845 198.748 169.963 198.748C170.119 198.748 170.249 198.761 170.418 198.774V196.902C169.339 196.902 168.507 197.253 168.013 197.929ZM177.631 200.529C177.631 198.28 176.045 196.902 173.991 196.902C171.859 196.902 170.26 198.41 170.26 200.503C170.26 202.583 171.833 204.104 174.251 204.104C175.512 204.104 176.487 203.714 177.137 202.973L176.058 201.803C175.577 202.258 175.044 202.479 174.303 202.479C173.237 202.479 172.496 201.946 172.301 201.075H177.592C177.605 200.906 177.631 200.685 177.631 200.529ZM174.004 198.436C174.914 198.436 175.577 199.008 175.72 199.892H172.275C172.418 198.995 173.081 198.436 174.004 198.436ZM180.554 204.104C182.647 204.104 183.856 203.181 183.856 201.881C183.856 199.125 179.631 200.282 179.631 199.086C179.631 198.722 180.021 198.436 180.931 198.436C181.568 198.436 182.257 198.566 182.946 198.956L183.622 197.513C182.959 197.123 181.893 196.902 180.931 196.902C178.89 196.902 177.694 197.838 177.694 199.164C177.694 201.959 181.919 200.789 181.919 201.933C181.919 202.323 181.568 202.57 180.632 202.57C179.774 202.57 178.825 202.297 178.201 201.894L177.525 203.35C178.175 203.779 179.371 204.104 180.554 204.104ZM186.68 204.104C188.773 204.104 189.982 203.181 189.982 201.881C189.982 199.125 185.757 200.282 185.757 199.086C185.757 198.722 186.147 198.436 187.057 198.436C187.694 198.436 188.383 198.566 189.072 198.956L189.748 197.513C189.085 197.123 188.019 196.902 187.057 196.902C185.016 196.902 183.82 197.838 183.82 199.164C183.82 201.959 188.045 200.789 188.045 201.933C188.045 202.323 187.694 202.57 186.758 202.57C185.9 202.57 184.951 202.297 184.327 201.894L183.651 203.35C184.301 203.779 185.497 204.104 186.68 204.104ZM197.606 196.902C196.709 196.902 195.929 197.188 195.383 197.734V194.354H193.355V204H195.383V200.542C195.383 199.255 196.085 198.657 197.06 198.657C197.957 198.657 198.477 199.177 198.477 200.308V204H200.505V199.996C200.505 197.864 199.257 196.902 197.606 196.902ZM204.968 204.104C207.191 204.104 208.803 202.609 208.803 200.503C208.803 198.397 207.191 196.902 204.968 196.902C202.745 196.902 201.12 198.397 201.12 200.503C201.12 202.609 202.745 204.104 204.968 204.104ZM204.968 202.44C203.954 202.44 203.174 201.712 203.174 200.503C203.174 199.294 203.954 198.566 204.968 198.566C205.982 198.566 206.749 199.294 206.749 200.503C206.749 201.712 205.982 202.44 204.968 202.44ZM209.378 204H211.406V194.354H209.378V204ZM217.604 194.354V197.747C217.097 197.175 216.369 196.902 215.511 196.902C213.535 196.902 212.014 198.306 212.014 200.503C212.014 202.7 213.535 204.104 215.511 204.104C216.447 204.104 217.188 203.805 217.695 203.194V204H219.632V194.354H217.604ZM215.862 202.44C214.848 202.44 214.068 201.712 214.068 200.503C214.068 199.294 214.848 198.566 215.862 198.566C216.863 198.566 217.643 199.294 217.643 200.503C217.643 201.712 216.863 202.44 215.862 202.44ZM156.258 218.232C156.037 218.401 155.738 218.492 155.439 218.492C154.893 218.492 154.568 218.167 154.568 217.569V214.722H156.31V213.162H154.568V211.459H152.54V213.162H151.461V214.722H152.54V217.595C152.54 219.259 153.502 220.104 155.153 220.104C155.777 220.104 156.388 219.961 156.804 219.662L156.258 218.232ZM161.414 212.902C160.517 212.902 159.737 213.188 159.191 213.734V210.354H157.163V220H159.191V216.542C159.191 215.255 159.893 214.657 160.868 214.657C161.765 214.657 162.285 215.177 162.285 216.308V220H164.313V215.996C164.313 213.864 163.065 212.902 161.414 212.902ZM172.298 216.529C172.298 214.28 170.712 212.902 168.658 212.902C166.526 212.902 164.927 214.41 164.927 216.503C164.927 218.583 166.5 220.104 168.918 220.104C170.179 220.104 171.154 219.714 171.804 218.973L170.725 217.803C170.244 218.258 169.711 218.479 168.97 218.479C167.904 218.479 167.163 217.946 166.968 217.075H172.259C172.272 216.906 172.298 216.685 172.298 216.529ZM168.671 214.436C169.581 214.436 170.244 215.008 170.387 215.892H166.942C167.085 214.995 167.748 214.436 168.671 214.436ZM182.79 212.59V210.9H175.913V220H178.019V216.685H182.231V214.995H178.019V212.59H182.79ZM183.293 220H185.321V210.354H183.293V220ZM189.751 220.104C191.974 220.104 193.586 218.609 193.586 216.503C193.586 214.397 191.974 212.902 189.751 212.902C187.528 212.902 185.903 214.397 185.903 216.503C185.903 218.609 187.528 220.104 189.751 220.104ZM189.751 218.44C188.737 218.44 187.957 217.712 187.957 216.503C187.957 215.294 188.737 214.566 189.751 214.566C190.765 214.566 191.532 215.294 191.532 216.503C191.532 217.712 190.765 218.44 189.751 218.44ZM196.868 212.902C195.75 212.902 194.619 213.201 193.852 213.747L194.58 215.164C195.087 214.761 195.854 214.514 196.595 214.514C197.687 214.514 198.207 215.021 198.207 215.892H196.595C194.463 215.892 193.592 216.75 193.592 217.985C193.592 219.194 194.567 220.104 196.205 220.104C197.232 220.104 197.96 219.766 198.337 219.129V220H200.235V216.009C200.235 213.89 199 212.902 196.868 212.902ZM196.712 218.739C195.997 218.739 195.568 218.401 195.568 217.894C195.568 217.426 195.867 217.075 196.816 217.075H198.207V217.79C197.973 218.427 197.388 218.739 196.712 218.739ZM205.256 218.232C205.035 218.401 204.736 218.492 204.437 218.492C203.891 218.492 203.566 218.167 203.566 217.569V214.722H205.308V213.162H203.566V211.459H201.538V213.162H200.459V214.722H201.538V217.595C201.538 219.259 202.5 220.104 204.151 220.104C204.775 220.104 205.386 219.961 205.802 219.662L205.256 218.232ZM207.174 212.031C207.928 212.031 208.435 211.537 208.435 210.861C208.435 210.237 207.928 209.769 207.174 209.769C206.42 209.769 205.913 210.263 205.913 210.9C205.913 211.537 206.42 212.031 207.174 212.031ZM206.16 220H208.188V213.006H206.16V220ZM213.541 212.902C212.592 212.902 211.773 213.227 211.227 213.825V213.006H209.29V220H211.318V216.542C211.318 215.255 212.02 214.657 212.995 214.657C213.892 214.657 214.412 215.177 214.412 216.308V220H216.44V215.996C216.44 213.864 215.192 212.902 213.541 212.902ZM222.866 213.006V213.903C222.333 213.227 221.527 212.902 220.552 212.902C218.615 212.902 217.055 214.241 217.055 216.282C217.055 218.323 218.615 219.662 220.552 219.662C221.462 219.662 222.229 219.376 222.762 218.791V219.09C222.762 220.351 222.138 221.001 220.708 221.001C219.811 221.001 218.836 220.689 218.238 220.208L217.432 221.664C218.251 222.301 219.538 222.626 220.864 222.626C223.386 222.626 224.79 221.43 224.79 218.83V213.006H222.866ZM220.955 217.998C219.889 217.998 219.109 217.309 219.109 216.282C219.109 215.255 219.889 214.566 220.955 214.566C222.021 214.566 222.788 215.255 222.788 216.282C222.788 217.309 222.021 217.998 220.955 217.998ZM149.697 226.9H145.758V236H147.864V233.491H149.697C152.128 233.491 153.649 232.23 153.649 230.202C153.649 228.161 152.128 226.9 149.697 226.9ZM149.58 231.775H147.864V228.616H149.58C150.867 228.616 151.517 229.201 151.517 230.202C151.517 231.19 150.867 231.775 149.58 231.775ZM154.356 236H156.384V226.354H154.356V236ZM162.504 229.006V232.464C162.504 233.751 161.828 234.349 160.892 234.349C159.995 234.349 159.475 233.829 159.475 232.659V229.006H157.447V232.958C157.447 235.116 158.682 236.104 160.437 236.104C161.295 236.104 162.075 235.779 162.608 235.168V236H164.532V229.006H162.504ZM167.984 236.104C170.077 236.104 171.286 235.181 171.286 233.881C171.286 231.125 167.061 232.282 167.061 231.086C167.061 230.722 167.451 230.436 168.361 230.436C168.998 230.436 169.687 230.566 170.376 230.956L171.052 229.513C170.389 229.123 169.323 228.902 168.361 228.902C166.32 228.902 165.124 229.838 165.124 231.164C165.124 233.959 169.349 232.789 169.349 233.933C169.349 234.323 168.998 234.57 168.062 234.57C167.204 234.57 166.255 234.297 165.631 233.894L164.955 235.35C165.605 235.779 166.801 236.104 167.984 236.104ZM181.484 231.268C182.225 230.878 182.693 230.176 182.693 229.266C182.693 227.849 181.523 226.9 179.248 226.9H174.802V236H179.508C181.9 236 183.148 235.09 183.148 233.517C183.148 232.373 182.498 231.593 181.484 231.268ZM178.988 228.486C180.015 228.486 180.574 228.837 180.574 229.552C180.574 230.267 180.015 230.631 178.988 230.631H176.895V228.486H178.988ZM179.352 234.414H176.895V232.165H179.352C180.444 232.165 181.029 232.529 181.029 233.296C181.029 234.076 180.444 234.414 179.352 234.414ZM188.838 229.006V232.464C188.838 233.751 188.162 234.349 187.226 234.349C186.329 234.349 185.809 233.829 185.809 232.659V229.006H183.781V232.958C183.781 235.116 185.016 236.104 186.771 236.104C187.629 236.104 188.409 235.779 188.942 235.168V236H190.866V229.006H188.838ZM195.929 234.232C195.708 234.401 195.409 234.492 195.11 234.492C194.564 234.492 194.239 234.167 194.239 233.569V230.722H195.981V229.162H194.239V227.459H192.211V229.162H191.132V230.722H192.211V233.595C192.211 235.259 193.173 236.104 194.824 236.104C195.448 236.104 196.059 235.961 196.475 235.662L195.929 234.232ZM200.646 234.232C200.425 234.401 200.126 234.492 199.827 234.492C199.281 234.492 198.956 234.167 198.956 233.569V230.722H200.698V229.162H198.956V227.459H196.928V229.162H195.849V230.722H196.928V233.595C196.928 235.259 197.89 236.104 199.541 236.104C200.165 236.104 200.776 235.961 201.192 235.662L200.646 234.232ZM204.663 236.104C206.886 236.104 208.498 234.609 208.498 232.503C208.498 230.397 206.886 228.902 204.663 228.902C202.44 228.902 200.815 230.397 200.815 232.503C200.815 234.609 202.44 236.104 204.663 236.104ZM204.663 234.44C203.649 234.44 202.869 233.712 202.869 232.503C202.869 231.294 203.649 230.566 204.663 230.566C205.677 230.566 206.444 231.294 206.444 232.503C206.444 233.712 205.677 234.44 204.663 234.44ZM213.325 228.902C212.376 228.902 211.557 229.227 211.011 229.825V229.006H209.074V236H211.102V232.542C211.102 231.255 211.804 230.657 212.779 230.657C213.676 230.657 214.196 231.177 214.196 232.308V236H216.224V231.996C216.224 229.864 214.976 228.902 213.325 228.902ZM224.148 234.232C223.927 234.401 223.628 234.492 223.329 234.492C222.783 234.492 222.458 234.167 222.458 233.569V230.722H224.2V229.162H222.458V227.459H220.43V229.162H219.351V230.722H220.43V233.595C220.43 235.259 221.392 236.104 223.043 236.104C223.667 236.104 224.278 235.961 224.694 235.662L224.148 234.232ZM228.165 236.104C230.388 236.104 232 234.609 232 232.503C232 230.397 230.388 228.902 228.165 228.902C225.942 228.902 224.317 230.397 224.317 232.503C224.317 234.609 225.942 236.104 228.165 236.104ZM228.165 234.44C227.151 234.44 226.371 233.712 226.371 232.503C226.371 231.294 227.151 230.566 228.165 230.566C229.179 230.566 229.946 231.294 229.946 232.503C229.946 233.712 229.179 234.44 228.165 234.44ZM176.911 252L174.87 249.075C176.053 248.568 176.742 247.567 176.742 246.202C176.742 244.161 175.221 242.9 172.79 242.9H168.851V252H170.957V249.465H172.79H172.894L174.649 252H176.911ZM174.61 246.202C174.61 247.19 173.96 247.788 172.673 247.788H170.957V244.616H172.673C173.96 244.616 174.61 245.201 174.61 246.202ZM184.338 248.529C184.338 246.28 182.752 244.902 180.698 244.902C178.566 244.902 176.967 246.41 176.967 248.503C176.967 250.583 178.54 252.104 180.958 252.104C182.219 252.104 183.194 251.714 183.844 250.973L182.765 249.803C182.284 250.258 181.751 250.479 181.01 250.479C179.944 250.479 179.203 249.946 179.008 249.075H184.299C184.312 248.906 184.338 248.685 184.338 248.529ZM180.711 246.436C181.621 246.436 182.284 247.008 182.427 247.892H178.982C179.125 246.995 179.788 246.436 180.711 246.436ZM188.289 252.104C189.758 252.104 190.915 251.454 191.422 250.336L189.849 249.478C189.472 250.154 188.913 250.44 188.276 250.44C187.249 250.44 186.443 249.725 186.443 248.503C186.443 247.281 187.249 246.566 188.276 246.566C188.913 246.566 189.472 246.865 189.849 247.528L191.422 246.683C190.915 245.539 189.758 244.902 188.289 244.902C186.014 244.902 184.389 246.397 184.389 248.503C184.389 250.609 186.014 252.104 188.289 252.104ZM195.048 252.104C197.271 252.104 198.883 250.609 198.883 248.503C198.883 246.397 197.271 244.902 195.048 244.902C192.825 244.902 191.2 246.397 191.2 248.503C191.2 250.609 192.825 252.104 195.048 252.104ZM195.048 250.44C194.034 250.44 193.254 249.712 193.254 248.503C193.254 247.294 194.034 246.566 195.048 246.566C196.062 246.566 196.829 247.294 196.829 248.503C196.829 249.712 196.062 250.44 195.048 250.44ZM201.396 245.929V245.006H199.459V252H201.487V248.698C201.487 247.359 202.228 246.748 203.346 246.748C203.502 246.748 203.632 246.761 203.801 246.774V244.902C202.722 244.902 201.89 245.253 201.396 245.929ZM209.259 242.354V245.747C208.752 245.175 208.024 244.902 207.166 244.902C205.19 244.902 203.669 246.306 203.669 248.503C203.669 250.7 205.19 252.104 207.166 252.104C208.102 252.104 208.843 251.805 209.35 251.194V252H211.287V242.354H209.259ZM207.517 250.44C206.503 250.44 205.723 249.712 205.723 248.503C205.723 247.294 206.503 246.566 207.517 246.566C208.518 246.566 209.298 247.294 209.298 248.503C209.298 249.712 208.518 250.44 207.517 250.44Z" fill="#E5E5E5"/>
<path d="M189.5 63.4609L189.5 138.5" stroke="white" stroke-width="1.5" stroke-linecap="round" stroke-dasharray="4 4"/>
<path d="M61.5 423.461L61.5 509.5" stroke="white" stroke-width="1.5" stroke-linecap="round" stroke-dasharray="4 4"/>
<path d="M190.5 716.461L190.5 769.5" stroke="white" stroke-width="1.5" stroke-linecap="round" stroke-dasharray="4 4"/>
<path d="M176.194 925.668C178.994 925.668 180.352 924.268 180.352 922.63C180.352 919.032 174.654 920.278 174.654 918.472C174.654 917.856 175.172 917.352 176.516 917.352C177.384 917.352 178.322 917.604 179.232 918.122L179.932 916.4C179.022 915.826 177.762 915.532 176.53 915.532C173.744 915.532 172.4 916.918 172.4 918.584C172.4 922.224 178.098 920.964 178.098 922.798C178.098 923.4 177.552 923.848 176.208 923.848C175.032 923.848 173.8 923.428 172.974 922.826L172.204 924.534C173.072 925.206 174.64 925.668 176.194 925.668ZM184.436 917.856C183.232 917.856 182.014 918.178 181.188 918.766L181.972 920.292C182.518 919.858 183.344 919.592 184.142 919.592C185.318 919.592 185.878 920.138 185.878 921.076H184.142C181.846 921.076 180.908 922 180.908 923.33C180.908 924.632 181.958 925.612 183.722 925.612C184.828 925.612 185.612 925.248 186.018 924.562V925.5H188.062V921.202C188.062 918.92 186.732 917.856 184.436 917.856ZM184.268 924.142C183.498 924.142 183.036 923.778 183.036 923.232C183.036 922.728 183.358 922.35 184.38 922.35H185.878V923.12C185.626 923.806 184.996 924.142 184.268 924.142ZM194.928 917.968L192.772 923.092L190.686 917.968H188.432L191.596 925.5H193.85L197.028 917.968H194.928ZM204.742 921.762C204.742 919.34 203.034 917.856 200.822 917.856C198.526 917.856 196.804 919.48 196.804 921.734C196.804 923.974 198.498 925.612 201.102 925.612C202.46 925.612 203.51 925.192 204.21 924.394L203.048 923.134C202.53 923.624 201.956 923.862 201.158 923.862C200.01 923.862 199.212 923.288 199.002 922.35H204.7C204.714 922.168 204.742 921.93 204.742 921.762ZM200.836 919.508C201.816 919.508 202.53 920.124 202.684 921.076H198.974C199.128 920.11 199.842 919.508 200.836 919.508Z" fill="#E5E5E5"/>
<rect x="128.5" y="890" width="120" height="60" rx="8" stroke="white" stroke-width="1.5" stroke-linecap="round" stroke-linejoin="round"/>
<path d="M190.5 834.461L190.5 887.5" stroke="white" stroke-width="1.5" stroke-linecap="round" stroke-dasharray="4 4"/>
<path d="M270.192 539L267.994 535.85C269.268 535.304 270.01 534.226 270.01 532.756C270.01 530.558 268.372 529.2 265.754 529.2H261.512V539H263.78V536.27H265.754H265.866L267.756 539H270.192ZM267.714 532.756C267.714 533.82 267.014 534.464 265.628 534.464H263.78V531.048H265.628C267.014 531.048 267.714 531.678 267.714 532.756ZM278.681 535.262C278.681 532.84 276.973 531.356 274.761 531.356C272.465 531.356 270.743 532.98 270.743 535.234C270.743 537.474 272.437 539.112 275.041 539.112C276.399 539.112 277.449 538.692 278.149 537.894L276.987 536.634C276.469 537.124 275.895 537.362 275.097 537.362C273.949 537.362 273.151 536.788 272.941 535.85H278.639C278.653 535.668 278.681 535.43 278.681 535.262ZM274.775 533.008C275.755 533.008 276.469 533.624 276.623 534.576H272.913C273.067 533.61 273.781 533.008 274.775 533.008ZM283.425 539.112C285.007 539.112 286.253 538.412 286.799 537.208L285.105 536.284C284.699 537.012 284.097 537.32 283.411 537.32C282.305 537.32 281.437 536.55 281.437 535.234C281.437 533.918 282.305 533.148 283.411 533.148C284.097 533.148 284.699 533.47 285.105 534.184L286.799 533.274C286.253 532.042 285.007 531.356 283.425 531.356C280.975 531.356 279.225 532.966 279.225 535.234C279.225 537.502 280.975 539.112 283.425 539.112ZM291.194 539.112C293.588 539.112 295.324 537.502 295.324 535.234C295.324 532.966 293.588 531.356 291.194 531.356C288.8 531.356 287.05 532.966 287.05 535.234C287.05 537.502 288.8 539.112 291.194 539.112ZM291.194 537.32C290.102 537.32 289.262 536.536 289.262 535.234C289.262 533.932 290.102 533.148 291.194 533.148C292.286 533.148 293.112 533.932 293.112 535.234C293.112 536.536 292.286 537.32 291.194 537.32ZM298.52 532.462V531.468H296.434V539H298.618V535.444C298.618 534.002 299.416 533.344 300.62 533.344C300.788 533.344 300.928 533.358 301.11 533.372V531.356C299.948 531.356 299.052 531.734 298.52 532.462ZM307.478 528.612V532.266C306.932 531.65 306.148 531.356 305.224 531.356C303.096 531.356 301.458 532.868 301.458 535.234C301.458 537.6 303.096 539.112 305.224 539.112C306.232 539.112 307.03 538.79 307.576 538.132V539H309.662V528.612H307.478ZM305.602 537.32C304.51 537.32 303.67 536.536 303.67 535.234C303.67 533.932 304.51 533.148 305.602 533.148C306.68 533.148 307.52 533.932 307.52 535.234C307.52 536.536 306.68 537.32 305.602 537.32ZM320.325 531.468L318.169 536.592L316.083 531.468H313.829L316.993 539H319.247L322.425 531.468H320.325ZM326.345 539.112C328.739 539.112 330.475 537.502 330.475 535.234C330.475 532.966 328.739 531.356 326.345 531.356C323.951 531.356 322.201 532.966 322.201 535.234C322.201 537.502 323.951 539.112 326.345 539.112ZM326.345 537.32C325.253 537.32 324.413 536.536 324.413 535.234C324.413 533.932 325.253 533.148 326.345 533.148C327.437 533.148 328.263 533.932 328.263 535.234C328.263 536.536 327.437 537.32 326.345 537.32ZM332.677 530.418C333.489 530.418 334.035 529.886 334.035 529.158C334.035 528.486 333.489 527.982 332.677 527.982C331.865 527.982 331.319 528.514 331.319 529.2C331.319 529.886 331.865 530.418 332.677 530.418ZM331.585 539H333.769V531.468H331.585V539ZM339.086 539.112C340.668 539.112 341.914 538.412 342.46 537.208L340.766 536.284C340.36 537.012 339.758 537.32 339.072 537.32C337.966 537.32 337.098 536.55 337.098 535.234C337.098 533.918 337.966 533.148 339.072 533.148C339.758 533.148 340.36 533.47 340.766 534.184L342.46 533.274C341.914 532.042 340.668 531.356 339.086 531.356C336.636 531.356 334.886 532.966 334.886 535.234C334.886 537.502 336.636 539.112 339.086 539.112ZM350.649 535.262C350.649 532.84 348.941 531.356 346.729 531.356C344.433 531.356 342.711 532.98 342.711 535.234C342.711 537.474 344.405 539.112 347.009 539.112C348.367 539.112 349.417 538.692 350.117 537.894L348.955 536.634C348.437 537.124 347.863 537.362 347.065 537.362C345.917 537.362 345.119 536.788 344.909 535.85H350.607C350.621 535.668 350.649 535.43 350.649 535.262ZM346.743 533.008C347.723 533.008 348.437 533.624 348.591 534.576H344.881C345.035 533.61 345.749 533.008 346.743 533.008ZM359.638 537.096C359.4 537.278 359.078 537.376 358.756 537.376C358.168 537.376 357.818 537.026 357.818 536.382V533.316H359.694V531.636H357.818V529.802H355.634V531.636H354.472V533.316H355.634V536.41C355.634 538.202 356.67 539.112 358.448 539.112C359.12 539.112 359.778 538.958 360.226 538.636L359.638 537.096ZM364.454 539.112C366.848 539.112 368.584 537.502 368.584 535.234C368.584 532.966 366.848 531.356 364.454 531.356C362.06 531.356 360.31 532.966 360.31 535.234C360.31 537.502 362.06 539.112 364.454 539.112ZM364.454 537.32C363.362 537.32 362.522 536.536 362.522 535.234C362.522 533.932 363.362 533.148 364.454 533.148C365.546 533.148 366.372 533.932 366.372 535.234C366.372 536.536 365.546 537.32 364.454 537.32ZM307.859 554.096C307.621 554.278 307.299 554.376 306.977 554.376C306.389 554.376 306.039 554.026 306.039 553.382V550.316H307.915V548.636H306.039V546.802H303.855V548.636H302.693V550.316H303.855V553.41C303.855 555.202 304.891 556.112 306.669 556.112C307.341 556.112 307.999 555.958 308.447 555.636L307.859 554.096ZM316.468 552.262C316.468 549.84 314.76 548.356 312.548 548.356C310.252 548.356 308.53 549.98 308.53 552.234C308.53 554.474 310.224 556.112 312.828 556.112C314.186 556.112 315.236 555.692 315.936 554.894L314.774 553.634C314.256 554.124 313.682 554.362 312.884 554.362C311.736 554.362 310.938 553.788 310.728 552.85H316.426C316.44 552.668 316.468 552.43 316.468 552.262ZM312.562 550.008C313.542 550.008 314.256 550.624 314.41 551.576H310.7C310.854 550.61 311.568 550.008 312.562 550.008ZM324.633 556L321.721 552.15L324.521 548.468H322.197L320.559 550.666L318.963 548.468H316.513L319.313 552.206L316.415 556H318.795L320.503 553.69L322.155 556H324.633ZM329.613 554.096C329.375 554.278 329.053 554.376 328.731 554.376C328.143 554.376 327.793 554.026 327.793 553.382V550.316H329.669V548.636H327.793V546.802H325.609V548.636H324.447V550.316H325.609V553.41C325.609 555.202 326.645 556.112 328.423 556.112C329.095 556.112 329.753 555.958 330.201 555.636L329.613 554.096Z" fill="#E5E5E5"/>
<rect x="256.5" y="512" width="120" height="60" rx="8" stroke="white" stroke-width="1.5" stroke-linecap="round" stroke-linejoin="round"/>
<path d="M316.5 423.461L316.5 509.5" stroke="white" stroke-width="1.5" stroke-linecap="round" stroke-dasharray="4 4"/>
<path d="M316.5 359.356V345C316.5 336.163 309.337 329 300.5 329H77.5C68.6634 329 61.5 336.163 61.5 345V359.356" stroke="white" stroke-width="1.5" stroke-linecap="round" stroke-dasharray="4 4"/>
<path d="M188.5 329L188.5 281.535" stroke="white" stroke-width="1.5" stroke-linecap="round" stroke-dasharray="4 4"/>
<path d="M62.5 573.644V588C62.5 596.837 69.6634 604 78.5 604H301.5C310.337 604 317.5 596.837 317.5 588V573.644" stroke="white" stroke-width="1.5" stroke-linecap="round" stroke-dasharray="4 4"/>
<path d="M190.5 604L190.5 651.465" stroke="white" stroke-width="1.5" stroke-linecap="round" stroke-dasharray="4 4"/>
</svg>
